<?xml version="1.0" encoding="UTF-8" standalone="no"?>
<!-- Created with Inkscape (http://www.inkscape.org/) -->

<svg
   xmlns:dc="http://purl.org/dc/elements/1.1/"
   xmlns:cc="http://creativecommons.org/ns#"
   xmlns:rdf="http://www.w3.org/1999/02/22-rdf-syntax-ns#"
   xmlns:svg="http://www.w3.org/2000/svg"
   xmlns="http://www.w3.org/2000/svg"
   xmlns:sodipodi="http://sodipodi.sourceforge.net/DTD/sodipodi-0.dtd"
   xmlns:inkscape="http://www.inkscape.org/namespaces/inkscape"
   width="210.87512mm"
   height="48.828564mm"
   viewBox="0 0 210.87512 48.828563"
   version="1.1"
   id="svg8"
   inkscape:version="0.92.4 (5da689c313, 2019-01-14)"
   sodipodi:docname="logo.svg"
   inkscape:export-filename="D:\source\Emmcode\Angular\src\assets\images\logo.png"
   inkscape:export-xdpi="96"
   inkscape:export-ydpi="96">
  <defs
     id="defs2" />
  <sodipodi:namedview
     id="base"
     pagecolor="#ffffff"
     bordercolor="#666666"
     borderopacity="1.0"
     inkscape:pageopacity="0.0"
     inkscape:pageshadow="2"
     inkscape:zoom="0.7"
     inkscape:cx="748.3098"
     inkscape:cy="300.25039"
     inkscape:document-units="mm"
     inkscape:current-layer="g1010"
     showgrid="false"
     inkscape:snap-midpoints="true"
     inkscape:snap-center="true"
     inkscape:snap-smooth-nodes="false"
     inkscape:snap-intersection-paths="true"
     inkscape:snap-bbox="true"
     inkscape:bbox-nodes="true"
     inkscape:snap-global="true"
     inkscape:window-width="1920"
     inkscape:window-height="1058"
     inkscape:window-x="1072"
     inkscape:window-y="-8"
     inkscape:window-maximized="1"
     inkscape:object-paths="false"
     fit-margin-top="0"
     fit-margin-left="0"
     fit-margin-right="0"
     fit-margin-bottom="0"
     inkscape:snap-bbox-edge-midpoints="true"
     inkscape:snap-page="true"
     inkscape:snap-bbox-midpoints="true"
     inkscape:snap-object-midpoints="false"
     inkscape:object-nodes="false" />
  <metadata
     id="metadata5">
    <rdf:RDF>
      <cc:Work
         rdf:about="">
        <dc:format>image/svg+xml</dc:format>
        <dc:type
           rdf:resource="http://purl.org/dc/dcmitype/StillImage" />
        <dc:title></dc:title>
      </cc:Work>
    </rdf:RDF>
  </metadata>
  <g
     inkscape:label="Calque 1"
     inkscape:groupmode="layer"
     id="layer1"
     transform="translate(1039.4748,-123.81482)">
    <g
       id="g1010"
       transform="translate(-403.67857,57.452381)"
       inkscape:export-xdpi="96"
       inkscape:export-ydpi="96">
      <g
         id="g842"
         transform="translate(2.03437,-3.5966164)" />
      <g
         id="g854"
         transform="translate(5.923935,-5.3455205)">
        <path
           sodipodi:nodetypes="cccccccccc"
           inkscape:connector-curvature="0"
           id="path869"
           d="m -622.56147,77.180856 3.35211,0.112576 11.07021,8.823016 10.64692,-9.057045 5.2114,-0.0047 9.77244,19.067503 -10.23292,19.068904 -30.3086,-2e-5 -10.23284,-19.06908 z"
           style="fill:#5d536c;fill-opacity:1;stroke:none;stroke-width:0.20665407px;stroke-linecap:butt;stroke-linejoin:miter;stroke-opacity:1" />
        <path
           style="fill:#5d536c;fill-opacity:1;stroke:none;stroke-width:0.61996222;stroke-linecap:round;stroke-linejoin:miter;stroke-miterlimit:4;stroke-dasharray:none;stroke-opacity:1"
           d="m -623.04991,77.05335 c -9.26626,0 -10.03121,1.326708 -10.03121,14.603827 0,1.560282 -1.28765,1.29409 -3.12767,1.36262 v 3.102233 3.102639 c 1.84002,0.0685 3.12767,-0.197654 3.12767,1.362631 0,13.27712 0.76495,14.60382 10.03121,14.60382 v -6.55804 c -2.86293,0 -3.12971,-2.04152 -3.12971,-6.58427 0,-1.89245 -0.031,-5.926375 -4.18029,-5.926375 4.14932,0 4.18029,-4.033928 4.18029,-5.92637 0,-4.542755 0.26678,-6.584275 3.12971,-6.584275 v 0.0062 h 2.53675 c 3.03852,-0.07068 3.05195,-0.06483 5.28984,2.173089 l 2.99368,2.993666 4.33408,4.334081 1.08857,-1.088564 2.55896,-4.502804 -2.82253,-2.822115 -1.75293,-1.752929 -3.41384,-3.413827 c -2.48181,-2.481809 -2.51958,-2.479044 -6.06158,-2.479044 h -4.751 z"
           id="rect832-7"
           inkscape:connector-curvature="0"
           sodipodi:nodetypes="cscccsccscscccccccccccscc" />
        <path
           style="fill:#5d536c;fill-opacity:1;stroke:none;stroke-width:0.61996222;stroke-linecap:round;stroke-linejoin:miter;stroke-miterlimit:4;stroke-dasharray:none;stroke-opacity:1"
           d="m -597.49223,77.059403 c -3.54198,0 -3.57976,-0.0031 -6.06157,2.479046 l -3.41384,3.413827 -1.75293,1.752928 -2.82252,2.822114 2.55895,4.502805 1.08858,1.088564 4.33409,-4.334082 2.99365,-2.993665 c 2.2379,-2.237916 2.25135,-2.243775 5.28985,-2.17309 h 1.58582 v -6.558447 z"
           id="path1003-57"
           inkscape:connector-curvature="0"
           sodipodi:nodetypes="scccccccccccs" />
        <path
           style="fill:#00d4aa;fill-opacity:1;stroke:none;stroke-width:0.61996222;stroke-linecap:round;stroke-linejoin:miter;stroke-miterlimit:4;stroke-dasharray:none;stroke-opacity:1"
           d="m -592.74121,77.05335 v 0.0062 6.552386 c 2.86293,0 3.1297,2.04152 3.1297,6.584275 0,1.891887 0.0314,5.923598 4.17707,5.925965 h 5.85209 v -3.102233 c -1.84,-0.0685 -3.12765,0.197662 -3.12765,-1.36262 0,-13.277119 -0.76495,-14.603827 -10.03121,-14.603827 z"
           id="path990-6"
           inkscape:connector-curvature="0" />
        <path
           sodipodi:nodetypes="cccsccscc"
           inkscape:connector-curvature="0"
           id="path1033-9"
           d="m -636.20879,96.12203 h 5.8521 c -0.003,0 -0.003,4.13e-4 -0.003,4.13e-4 4.14931,0 4.18031,3.353638 4.18031,5.246077 0,4.54275 0.26676,7.26437 3.12969,7.26437 v 6.55805 c -9.26625,0 -10.03122,-1.32672 -10.03122,-14.60384 0,-1.560281 -1.28764,-1.294121 -3.12765,-1.362627 z"
           style="fill:#ff497c;fill-opacity:1;stroke:none;stroke-width:0.61996222;stroke-linecap:round;stroke-linejoin:miter;stroke-miterlimit:4;stroke-dasharray:none;stroke-opacity:1" />
        <g
           transform="matrix(0.44646692,0,0,0.44646692,-317.8878,55.04293)"
           id="text900"
           style="font-style:normal;font-variant:normal;font-weight:normal;font-stretch:normal;font-size:47.28599548px;line-height:1.25;font-family:'Levenim MT';-inkscape-font-specification:'Levenim MT';letter-spacing:0px;word-spacing:0px;fill:#5d536c;fill-opacity:1;stroke:#000000;stroke-width:1.97000003;stroke-miterlimit:4;stroke-dasharray:none"
           aria-label="emmcode">
          <path
             inkscape:connector-curvature="0"
             id="path888"
             style="fill:#ffffff;fill-opacity:1;stroke:#ffffff;stroke-opacity:1"
             d="m -515.35418,93.910775 h -22.58091 q 0.0923,4.225262 2.63213,7.042105 2.6783,2.95537 6.8343,2.95537 4.01746,0 6.81122,-2.44742 1.26988,-1.10826 2.74757,-3.57877 l 2.72449,1.43151 q -2.53978,4.96411 -7.04211,6.69577 -2.19344,0.85429 -4.9641,0.85429 -5.65678,0 -9.37408,-3.7404 -3.69422,-3.740394 -3.69422,-9.397166 0,-4.779395 2.93228,-8.519791 3.71731,-4.756306 9.95131,-4.756306 6.4187,0 10.25145,4.87175 2.72449,3.46333 2.77067,8.589058 z m -3.55569,-2.793753 q -1.20062,-4.779395 -5.14882,-6.626504 -2.03182,-0.946643 -4.27144,-0.946643 -3.69421,0 -6.34943,2.378153 -1.93947,1.731665 -2.93229,5.194994 z" />
          <path
             inkscape:connector-curvature="0"
             id="path890"
             style="fill:#ffffff;fill-opacity:1;stroke:#ffffff;stroke-opacity:1"
             d="m -471.76241,106.21714 h -3.30171 V 92.502354 q 0,-3.163174 -0.27706,-4.409973 -0.50796,-2.401242 -2.26271,-3.578774 -1.40842,-0.923554 -3.34789,-0.923554 -2.40124,0 -4.3407,1.40842 -1.93947,1.385332 -2.83993,3.694219 -0.87738,2.285797 -0.87738,7.688592 v 9.835856 h -3.20935 V 93.356642 q 0,-3.532596 -0.23089,-4.802484 -0.48487,-2.724486 -2.30889,-3.994373 -1.40842,-0.969732 -3.34788,-0.969732 -2.33198,0 -4.29453,1.40842 -1.8702,1.362243 -2.77067,3.578774 -0.94664,2.285798 -0.94664,6.995926 v 10.643967 h -3.20935 V 81.096455 h 3.20935 v 4.340707 q 3.50951,-4.987195 8.61215,-4.987195 3.85584,0 6.14164,2.609042 1.03899,1.200621 1.80093,3.417152 3.30171,-6.026194 9.25863,-6.026194 5.51824,0 7.57315,4.987195 0.96973,2.355064 0.96973,7.065192 z" />
          <path
             inkscape:connector-curvature="0"
             id="path892"
             style="fill:#ffffff;fill-opacity:1;stroke:#ffffff;stroke-opacity:1"
             d="m -427.43178,106.21714 h -3.30171 V 92.502354 q 0,-3.163174 -0.27707,-4.409973 -0.50795,-2.401242 -2.26271,-3.578774 -1.40842,-0.923554 -3.34788,-0.923554 -2.40124,0 -4.34071,1.40842 -1.93946,1.385332 -2.83993,3.694219 -0.87738,2.285797 -0.87738,7.688592 v 9.835856 h -3.20935 V 93.356642 q 0,-3.532596 -0.23089,-4.802484 -0.48486,-2.724486 -2.30888,-3.994373 -1.40842,-0.969732 -3.34789,-0.969732 -2.33197,0 -4.29453,1.40842 -1.8702,1.362243 -2.77066,3.578774 -0.94665,2.285798 -0.94665,6.995926 v 10.643967 h -3.20935 V 81.096455 h 3.20935 v 4.340707 q 3.50951,-4.987195 8.61215,-4.987195 3.85584,0 6.14164,2.609042 1.039,1.200621 1.80093,3.417152 3.30171,-6.026194 9.25864,-6.026194 5.51823,0 7.57314,4.987195 0.96974,2.355064 0.96974,7.065192 z" />
          <path
             inkscape:connector-curvature="0"
             id="path894"
             style="fill:#00d4aa;fill-opacity:1;stroke:#00d4aa;stroke-width:1.97000003;stroke-miterlimit:4;stroke-dasharray:none;stroke-opacity:1"
             d="m -396.26182,101.18377 q -3.78658,5.67986 -11.75224,5.67986 -5.74912,0 -9.72041,-3.60186 -4.08673,-3.717312 -4.08673,-9.397173 0,-3.671129 1.82402,-6.788126 1.84711,-3.116997 5.05646,-4.87175 3.20936,-1.754754 7.18064,-1.754754 5.12573,0 8.75068,2.747575 1.61622,1.22371 2.74758,3.116997 l -2.56287,1.593131 q -3.3248,-4.409973 -9.07392,-4.409973 -4.45615,0 -7.52697,2.816842 -3.14009,2.909197 -3.14009,7.31917 0,2.770664 1.40842,5.194994 1.40842,2.401247 3.83275,3.740397 2.42433,1.33915 5.44898,1.33915 5.54132,0 9.05083,-4.40997 z" />
          <path
             inkscape:connector-curvature="0"
             id="path896"
             style="fill:#00d4aa;fill-opacity:1;stroke:#00d4aa;stroke-width:1.97000003;stroke-miterlimit:4;stroke-dasharray:none;stroke-opacity:1"
             d="m -365.11495,93.726064 q 0,5.541328 -3.76348,9.350986 -3.76349,3.78658 -9.30481,3.78658 -5.54133,0 -9.32791,-3.78658 -3.76348,-3.786569 -3.76348,-9.350986 0,-5.218083 3.46333,-9.050835 3.80966,-4.225262 9.62806,-4.225262 5.7953,0 9.60496,4.202173 3.46333,3.832752 3.46333,9.073924 z m -3.27862,0.06927 q 0,-4.155996 -2.83993,-7.157548 -2.81684,-3.024642 -6.94974,-3.024642 -4.13291,0 -6.97284,3.024642 -2.81684,3.001552 -2.81684,7.157548 0,2.678308 1.26988,5.010284 1.31607,2.401242 3.57878,3.694212 2.26271,1.29298 4.94102,1.29298 5.72603,0 8.47361,-4.917926 1.31606,-2.355064 1.31606,-5.07955 z" />
          <path
             inkscape:connector-curvature="0"
             id="path898"
             style="fill:#00d4aa;fill-opacity:1;stroke:#00d4aa;stroke-width:1.97000003;stroke-miterlimit:4;stroke-dasharray:none;stroke-opacity:1"
             d="m -334.06042,106.21714 h -3.18626 v -4.31762 q -4.08673,4.96411 -10.08983,4.96411 -5.44898,0 -9.18937,-3.92511 -3.69422,-3.855839 -3.69422,-9.350989 0,-5.425883 3.76349,-9.281724 3.78657,-3.85584 9.21245,-3.85584 6.21091,0 9.99748,5.264261 V 71.399132 h 3.18626 z m -2.97846,-12.421809 q 0,-4.317618 -2.83993,-7.272993 -2.81684,-2.955374 -7.11137,-2.955374 -5.77222,0 -8.61215,5.056461 -1.36224,2.401242 -1.36224,5.07955 0,2.678309 1.36224,5.10264 1.36225,2.401245 3.64804,3.763485 2.30889,1.33915 4.94102,1.33915 2.65522,0 5.03337,-1.33915 2.37816,-1.33915 3.64804,-3.624952 1.29298,-2.285798 1.29298,-5.148817 z" />
          <path
             inkscape:connector-curvature="0"
             id="path900"
             style="fill:#00d4aa;fill-opacity:1;stroke:#00d4aa;stroke-width:1.97000003;stroke-miterlimit:4;stroke-dasharray:none;stroke-opacity:1"
             d="m -302.01307,93.910775 h -22.58091 q 0.0924,4.225262 2.63213,7.042105 2.6783,2.95537 6.8343,2.95537 4.01746,0 6.81122,-2.44742 1.26988,-1.10826 2.74757,-3.57877 l 2.72449,1.43151 q -2.53978,4.96411 -7.04211,6.69577 -2.19344,0.85429 -4.9641,0.85429 -5.65677,0 -9.37408,-3.7404 -3.69422,-3.740394 -3.69422,-9.397166 0,-4.779395 2.93229,-8.519791 3.7173,-4.756306 9.9513,-4.756306 6.4187,0 10.25145,4.87175 2.72449,3.46333 2.77067,8.589058 z m -3.55569,-2.793753 q -1.20062,-4.779395 -5.14882,-6.626504 -2.03182,-0.946643 -4.27144,-0.946643 -3.69421,0 -6.34943,2.378153 -1.93947,1.731665 -2.93229,5.194994 z" />
        </g>
        <path
           inkscape:export-ydpi="96"
           inkscape:export-xdpi="96"
           inkscape:connector-curvature="0"
           id="path836"
           d="m -617.16966,108.15526 7.3067,-7.30669 -7.3067,-7.306695"
           style="fill:none;stroke:#ff497c;stroke-width:3.09981132;stroke-linecap:round;stroke-linejoin:round;stroke-miterlimit:4;stroke-dasharray:none;stroke-opacity:1"
           sodipodi:nodetypes="ccc"
           transform="translate(2.0343619,-3.596617)" />
        <path
           style="fill:none;stroke:#00d4aa;stroke-width:3.09981132;stroke-linecap:round;stroke-linejoin:round;stroke-miterlimit:4;stroke-dasharray:none;stroke-opacity:1"
           d="m -609.71684,108.125 h 7.02662"
           id="path838"
           inkscape:connector-curvature="0"
           transform="translate(2.0343619,-3.596617)" />
        <path
           style="fill:#00d4aa;fill-opacity:1;stroke:none;stroke-width:0.61996222;stroke-linecap:round;stroke-linejoin:miter;stroke-miterlimit:4;stroke-dasharray:none;stroke-opacity:1"
           d="m -579.58235,96.122225 h -5.85209 c 0.003,0 0.003,4.14e-4 0.003,4.14e-4 -4.14931,0 -4.18031,3.353638 -4.18031,5.246071 0,4.54275 -0.26676,7.26437 -3.12969,7.26437 v 6.55805 c 9.26625,0 10.03122,-1.32671 10.03122,-14.60383 0,-1.560285 1.28764,-1.294125 3.12764,-1.362632 z"
           id="path867"
           inkscape:connector-curvature="0"
           sodipodi:nodetypes="cccsccscc" />
        <path
           inkscape:connector-curvature="0"
           id="path871"
           d="m -449.51506,77.053483 v 0.0062 6.552393 c 2.86293,0 3.12968,2.041513 3.12968,6.584268 0,1.891887 0.0314,5.923606 4.17708,5.925972 0.003,0 0.003,3.99e-4 0.003,3.99e-4 -4.14931,0 -4.1803,3.353435 -4.1803,5.245865 0,4.54276 -0.26676,7.26438 -3.12969,7.26438 v 6.55804 c 9.26626,0 10.03121,-1.32671 10.03121,-14.60383 0,-1.560282 1.28764,-1.294115 3.12766,-1.362621 v -3.102233 -3.102232 c -1.84001,-0.0685 -3.12766,0.197654 -3.12766,-1.362628 0,-13.277119 -0.76495,-14.603827 -10.03121,-14.603827 z"
           style="fill:#5d536c;fill-opacity:1;stroke:none;stroke-width:0.61996222;stroke-linecap:round;stroke-linejoin:miter;stroke-miterlimit:4;stroke-dasharray:none;stroke-opacity:1" />
        <path
           style="fill:#5d536c;fill-opacity:1;stroke:none;stroke-width:0.61996222;stroke-linecap:round;stroke-linejoin:miter;stroke-miterlimit:4;stroke-dasharray:none;stroke-opacity:1"
           d="m -562.41548,77.053483 v 0.0062 6.552393 c -2.86293,0 -3.12968,2.041513 -3.12968,6.584268 0,1.891887 -0.0314,5.923606 -4.17708,5.925972 -0.003,0 -0.003,3.99e-4 -0.003,3.99e-4 4.14931,0 4.18031,3.353435 4.18031,5.245865 0,4.54276 0.26675,7.26438 3.12968,7.26438 v 6.55804 c -9.26624,0 -10.0312,-1.32671 -10.0312,-14.60383 0,-1.560282 -1.28765,-1.294115 -3.12765,-1.362621 v -3.102233 -3.102232 c 1.83999,-0.0685 3.12765,0.197654 3.12765,-1.362628 0,-13.277119 0.76496,-14.603827 10.0312,-14.603827 z"
           id="path882"
           inkscape:connector-curvature="0" />
      </g>
    </g>
  </g>
</svg>
